<svg width="20" height="22" viewBox="0 0 20 22" fill="none" xmlns="http://www.w3.org/2000/svg">
<path d="M7.58329 8H6.62496H5.66663" stroke="#CEAA5B" stroke-width="2" stroke-linecap="round" stroke-linejoin="round"/>
<path d="M13.3333 16H5.66663" stroke="#CEAA5B" stroke-width="2" stroke-linecap="round" stroke-linejoin="round"/>
<path d="M13.3333 12H5.66663" stroke="#CEAA5B" stroke-width="2" stroke-linecap="round" stroke-linejoin="round"/>
<path d="M12.375 1V7H18.125" stroke="#CEAA5B" stroke-width="2" stroke-linecap="round" stroke-linejoin="round"/>
<path d="M12.0156 1H3.86977C3.32967 1 2.81169 1.21071 2.42978 1.58579C2.04787 1.96086 1.83331 2.46957 1.83331 3V19C1.83331 19.5304 2.04787 20.0391 2.42978 20.4142C2.81169 20.7893 3.32967 21 3.86977 21H16.0885C16.6286 21 17.1466 20.7893 17.5285 20.4142C17.9104 20.0391 18.125 19.5304 18.125 19V7L12.0156 1Z" stroke="#CEAA5B" stroke-width="2" stroke-linecap="round" stroke-linejoin="round"/>
</svg>
