<svg width="21" height="24" viewBox="0 0 21 24" fill="none" xmlns="http://www.w3.org/2000/svg">
<path d="M20.0833 8.88144C20.0849 7.38599 19.6781 5.91444 18.9009 4.6035C18.1238 3.29256 17.0013 2.18476 15.6379 1.383C14.2745 0.581247 12.7144 0.111552 11.1024 0.0175491C9.49047 -0.0764532 7.879 0.208287 6.41773 0.845318C4.95645 1.48235 3.69277 2.45101 2.74408 3.6613C1.79538 4.87159 1.19246 6.28426 0.991302 7.76807C0.790149 9.25188 0.997297 10.7587 1.5935 12.1485C2.18971 13.5384 3.15563 14.7662 4.40153 15.7178V23.4011C4.40065 23.5388 4.4383 23.6743 4.51083 23.7945C4.58335 23.9146 4.68827 24.0154 4.81536 24.0868C4.94142 24.1602 5.08569 24.2024 5.2344 24.2095C5.3831 24.2165 5.53128 24.1882 5.66479 24.1271L10.5 21.8786L15.3352 24.1271C15.4589 24.1777 15.5921 24.2051 15.7273 24.2078C15.9583 24.2078 16.1799 24.1228 16.3433 23.9715C16.5067 23.8203 16.5985 23.6151 16.5985 23.4011V15.7178C17.6884 14.8871 18.5661 13.8433 19.1686 12.6613C19.7712 11.4793 20.0835 10.1885 20.0833 8.88144V8.88144ZM2.65911 8.88144C2.65911 7.44558 3.11897 6.04196 3.98054 4.84809C4.84211 3.65421 6.06669 2.7237 7.49943 2.17422C8.93217 1.62473 10.5087 1.48097 12.0297 1.76109C13.5507 2.04121 14.9478 2.73265 16.0444 3.74795C17.1409 4.76326 17.8877 6.05684 18.1903 7.46512C18.4928 8.87339 18.3375 10.3331 17.7441 11.6597C17.1506 12.9862 16.1456 14.1201 14.8562 14.9178C13.5668 15.7155 12.0508 16.1413 10.5 16.1413C8.42136 16.1386 6.42867 15.3729 4.95884 14.012C3.48901 12.6511 2.66199 10.8061 2.65911 8.88144V8.88144ZM14.8561 22.1004L10.8921 20.2552C10.7698 20.2007 10.6358 20.1724 10.5 20.1724C10.3643 20.1724 10.2303 20.2007 10.108 20.2552L6.14396 22.1004V16.7866C7.4931 17.4232 8.98581 17.755 10.5 17.755C12.0142 17.755 13.5069 17.4232 14.8561 16.7866V22.1004ZM10.5 14.528C11.7062 14.528 12.8853 14.1968 13.8882 13.5764C14.891 12.9559 15.6727 12.0741 16.1343 11.0423C16.5959 10.0105 16.7166 8.87518 16.4813 7.77986C16.246 6.68453 15.6652 5.67841 14.8123 4.88873C13.9594 4.09904 12.8728 3.56126 11.6898 3.34339C10.5068 3.12552 9.28058 3.23734 8.16623 3.66471C7.05188 4.09208 6.09942 4.81582 5.42931 5.74439C4.7592 6.67296 4.40153 7.76466 4.40153 8.88144C4.40153 10.379 5.04405 11.8152 6.18774 12.8742C7.33143 13.9331 8.8826 14.528 10.5 14.528ZM10.5 4.84819C11.3616 4.84819 12.2038 5.08474 12.9201 5.52792C13.6365 5.9711 14.1948 6.60101 14.5245 7.33799C14.8542 8.07497 14.9405 8.88592 14.7724 9.66829C14.6043 10.4507 14.1894 11.1693 13.5802 11.7334C12.971 12.2974 12.1948 12.6816 11.3498 12.8372C10.5049 12.9928 9.62899 12.9129 8.83303 12.6077C8.03706 12.3024 7.35674 11.7855 6.87809 11.1222C6.39944 10.4589 6.14396 9.67915 6.14396 8.88144C6.14683 7.81258 6.6067 6.78825 7.42299 6.03245C8.23929 5.27664 9.3456 4.85086 10.5 4.84819V4.84819Z" fill="#CEAA5B"/>
</svg>
