<svg width="22" height="22" viewBox="0 0 22 22" fill="none" xmlns="http://www.w3.org/2000/svg">
<path d="M21 21.15H21.15V21V17.4286V17.4284C21.1484 16.0631 20.6054 14.7541 19.6399 13.7886C18.6745 12.8232 17.3655 12.2801 16.0002 12.2786L15.85 12.2784V12.4286V13.8571V14.007L15.9998 14.0071C16.907 14.0082 17.7766 14.3691 18.4181 15.0105C19.0595 15.6519 19.4203 16.5216 19.4214 17.4288V21V21.15H19.5714H21ZM15.2857 21.15H15.4357V21L15.4357 17.4286L15.4357 17.4284C15.4342 16.0631 14.8911 14.7541 13.9256 13.7886C12.9602 12.8232 11.6512 12.2801 10.2859 12.2786H10.2857L6 12.2786L5.99983 12.2786C4.63449 12.2801 3.32551 12.8232 2.36007 13.7886C1.39463 14.7541 0.851558 16.0631 0.85 17.4284V17.4286V21V21.15H1H2.42857H2.57857V21L2.57857 17.4288C2.57857 17.4287 2.57857 17.4287 2.57857 17.4287C2.57968 16.5216 2.94052 15.6519 3.58194 15.0105C4.22338 14.3691 5.09305 14.0082 6.00018 14.0071H10.2855C11.1927 14.0082 12.0623 14.3691 12.7038 15.0105C13.3452 15.6519 13.7061 16.5216 13.7071 17.4288V21V21.15H13.8571H15.2857ZM13.8571 0.85H13.7071V1V2.42857V2.57857H13.8571C14.7646 2.57857 15.6348 2.93904 16.2765 3.58068C16.9181 4.22233 17.2786 5.09258 17.2786 6C17.2786 6.90742 16.9181 7.77767 16.2765 8.41932C15.6348 9.06096 14.7646 9.42143 13.8571 9.42143H13.7071V9.57143V11V11.15H13.8571C15.223 11.15 16.5329 10.6074 17.4987 9.6416C18.4646 8.67579 19.0071 7.36586 19.0071 6C19.0071 4.63414 18.4646 3.32421 17.4987 2.3584C16.5329 1.39259 15.223 0.85 13.8571 0.85ZM8.14286 2.57857C8.81955 2.57857 9.48105 2.77923 10.0437 3.15519C10.6064 3.53114 11.0449 4.06549 11.3038 4.69068C11.5628 5.31586 11.6306 6.0038 11.4985 6.66749C11.3665 7.33118 11.0407 7.94082 10.5622 8.41932C10.0837 8.89781 9.47404 9.22367 8.81034 9.35569C8.14665 9.4877 7.45872 9.41995 6.83353 9.16099C6.20835 8.90203 5.67399 8.46349 5.29804 7.90084C4.92209 7.33819 4.72143 6.67669 4.72143 6C4.72143 5.09258 5.0819 4.22233 5.72354 3.58068C6.36518 2.93904 7.23544 2.57857 8.14286 2.57857ZM8.14286 0.85C7.12428 0.85 6.12858 1.15204 5.28167 1.71793C4.43476 2.28382 3.77467 3.08814 3.38488 4.02918C2.99509 4.97022 2.8931 6.00571 3.09181 7.00471C3.29053 8.00372 3.78102 8.92136 4.50126 9.6416C5.2215 10.3618 6.13914 10.8523 7.13814 11.051C8.13714 11.2498 9.17264 11.1478 10.1137 10.758C11.0547 10.3682 11.859 9.7081 12.4249 8.86119C12.9908 8.01427 13.2929 7.01857 13.2929 6C13.2929 4.63414 12.7503 3.32421 11.7845 2.3584C10.8186 1.39259 9.50872 0.85 8.14286 0.85Z" fill="#CEAA5B" stroke="#CEAA5B" stroke-width="0.3"/>
</svg>
